<?xml version="1.0" encoding="iso-8859-1"?>
<!-- Generator: Adobe Illustrator 19.0.0, SVG Export Plug-In . SVG Version: 6.00 Build 0)  -->
<svg version="1.1" id="Layer_1" xmlns="http://www.w3.org/2000/svg" xmlns:xlink="http://www.w3.org/1999/xlink" x="0px" y="0px"
	 viewBox="0 0 392.579 392.579" style="enable-background:new 0 0 392.579 392.579;" xml:space="preserve">
<path style="fill:#194F82;" d="M389.676,79.61c-11.636-36.267-47.386-46.933-76.283-39.111l-97.422,31.354
	c-6.077,2.651-8.469,7.176-7.046,13.77l30.448,94.578c2.78,6.4,7.499,8.469,13.77,7.046l97.487-31.354
	C384.375,147.941,399.373,107.861,389.676,79.61z M343.907,135.141l-87.143,28.057l-23.725-73.826l87.143-28.057
	c17.519-5.43,40.727,1.293,48.743,25.018C375.196,105.081,365.24,128.224,343.907,135.141z"/>
<path style="fill:#56ACE0;" d="M320.117,61.315l-87.143,28.057l23.725,73.826l87.273-28.057
	c21.333-6.853,31.354-30.061,25.018-48.743C360.844,62.608,337.636,55.885,320.117,61.315z"/>
<g>
	<path style="fill:#194F82;" d="M142.468,260.168c-6.012,0-10.925,4.848-10.925,10.925s4.848,10.925,10.925,10.925h5.495
		c6.012,0,10.925-4.848,10.925-10.925c0-6.012-4.848-10.925-10.925-10.925L142.468,260.168L142.468,260.168z"/>
	<path style="fill:#194F82;" d="M196.254,290.681h-5.495c-6.012,0-10.925,4.848-10.925,10.925c0,6.012,4.848,10.925,10.925,10.925
		h5.495c6.012,0,10.925-4.848,10.925-10.925C207.115,295.529,202.266,290.681,196.254,290.681z"/>
	<path style="fill:#194F82;" d="M224.699,255.836c0-6.012-4.848-10.925-10.925-10.925h-5.495c-6.012,0-10.925,4.848-10.925,10.925
		c0,6.077,4.848,10.925,10.925,10.925h5.495C219.785,266.697,224.699,261.849,224.699,255.836z"/>
	<path style="fill:#194F82;" d="M243.899,281.436h-5.495c-6.012,0-10.925,4.849-10.925,10.925c0,6.012,4.848,10.925,10.925,10.925
		h5.495c6.012,0,10.925-4.848,10.925-10.925C254.824,286.35,249.975,281.436,243.899,281.436z"/>
	<path style="fill:#194F82;" d="M235.624,318.608h-5.495c-6.012,0-10.925,4.848-10.925,10.925c0,6.012,4.848,10.925,10.925,10.925
		h5.495c6.012,0,10.925-4.849,10.925-10.925C246.549,323.586,241.701,318.608,235.624,318.608z"/>
	<path style="fill:#194F82;" d="M164.125,332.701h-5.495c-6.012,0-10.925,4.848-10.925,10.925s4.848,10.925,10.925,10.925h5.495
		c6.012,0,10.925-4.848,10.925-10.925S170.137,332.701,164.125,332.701z"/>
	<path style="fill:#194F82;" d="M134.517,303.416h-5.495c-6.012,0-10.925,4.849-10.925,10.925c0,6.012,4.848,10.925,10.925,10.925
		h5.495c6.012,0,10.925-4.848,10.925-10.925C145.377,308.265,140.529,303.416,134.517,303.416z"/>
	<path style="fill:#194F82;" d="M187.074,234.051c0-6.012-4.848-10.925-10.925-10.925h-5.495c-6.012,0-10.925,4.848-10.925,10.925
		c0,6.012,4.848,10.925,10.925,10.925h5.495C182.161,244.911,187.074,240.063,187.074,234.051z"/>
	<path style="fill:#194F82;" d="M153.329,180.265l30.448-94.578c1.939-5.301-1.099-11.83-7.046-13.77L79.115,40.564
		c-34.069-8.986-64.259,6.335-76.218,39.111c-9.956,30.966,6.4,64.646,39.111,76.283l97.487,31.354
		C145.442,189.186,151.519,185.824,153.329,180.265z M48.731,135.141c-21.333-8.921-30.125-24.889-25.018-48.808
		c9.826-22.109,27.798-30.448,48.743-25.018l3.62,1.164l-4.331,13.446c-1.875,5.689,1.293,11.895,7.046,13.77
		c5.754,1.875,11.895-1.293,13.77-7.046l4.331-13.446l19.071,6.077l-7.758,24.048c-1.875,5.689,1.293,11.895,7.046,13.77
		c5.689,1.875,11.895-1.293,13.77-7.046l7.758-24.048l22.885,7.37l-23.725,73.826L48.731,135.141z"/>
</g>
<path style="fill:#FFC10D;" d="M76.141,62.479l-3.62-1.164c-20.945-5.43-38.917,2.909-48.743,25.018
	c-5.107,23.855,3.685,39.887,25.018,48.743l87.143,28.057l23.725-73.826l-22.82-7.305l-7.758,24.048
	c-1.875,5.689-8.016,8.857-13.77,7.046c-5.689-1.875-8.857-7.952-7.046-13.77l7.758-24.048l-19.071-6.077l-4.331,13.446
	c-1.875,5.689-7.952,8.857-13.77,7.046C73.167,87.82,70,81.743,71.81,75.925L76.141,62.479z"/>
<g>
</g>
<g>
</g>
<g>
</g>
<g>
</g>
<g>
</g>
<g>
</g>
<g>
</g>
<g>
</g>
<g>
</g>
<g>
</g>
<g>
</g>
<g>
</g>
<g>
</g>
<g>
</g>
<g>
</g>
</svg>
